<?xml version="1.0" encoding="utf-8"?>
<!-- Generator: Adobe Illustrator 24.1.0, SVG Export Plug-In . SVG Version: 6.00 Build 0)  -->
<svg version="1.1" id="Layer_1" xmlns="http://www.w3.org/2000/svg" xmlns:xlink="http://www.w3.org/1999/xlink" x="0px" y="0px"
	 viewBox="0 0 300 300" style="enable-background:new 0 0 300 300;" xml:space="preserve">
<path d="M264.2,22.7H36.3C20.7,22.7,8,35.4,8,51v152c0.1,15.6,12.7,28.2,28.3,28.2h83.5l-3.9,11.8H85.5c-9.3,0.2-16.8,7.9-16.6,17.2
	c0.2,9,7.4,16.3,16.4,16.6H215c9.3-0.2,16.8-7.9,16.6-17.2c-0.2-9-7.4-16.3-16.4-16.6h-30.6l-3.9-11.8h83.6
	c15.6,0,28.3-12.7,28.3-28.3V51C292.5,35.4,279.8,22.7,264.2,22.7z M281.5,202.9c0,9.5-7.8,17.3-17.3,17.3h-98.8l11.3,33.8H215
	c3.3,0.2,5.8,2.9,5.6,6.2c-0.2,3.1-2.7,5.5-5.7,5.6H85.4c-3.3,0-5.9-2.7-5.8-6c0,0,0,0,0,0c0.1-3.2,2.8-5.8,6-5.8h38.2l11.3-33.8
	H36.3c-9.5,0-17.3-7.7-17.3-17.3V51c0-9.6,7.7-17.3,17.3-17.3h227.9c9.6,0,17.3,7.8,17.3,17.3V202.9z"/>
<path d="M38.4,53.1v147.8h223.7V53.1H38.4z M251.1,189.8H49.4V64.1h201.7V189.8z"/>
</svg>
