<svg viewBox="0 0 542 173" xmlns="http://www.w3.org/2000/svg"><path d="m115.58 14.64-13.29 31a6.64 6.64 0 0 0 1.91 7.75l16.8 13.72a102.56 102.56 0 0 1 -49 49l-13.79-16.74a6.64 6.64 0 0 0 -7.75-1.91l-31 13.28a6.7 6.7 0 0 0 -3.85 7.61l6.65 28.78a6.63 6.63 0 0 0 6.47 5.15 128.39 128.39 0 0 0 128.41-128.37 6.63 6.63 0 0 0 -5.14-6.5l-28.78-6.65a6.72 6.72 0 0 0 -7.64 3.88z" fill="none" stroke="#8a00ef" stroke-width="7"/><g fill="#8a00ef"><path d="m481.94 163.78h-75.53a10.14 10.14 0 0 1 .08-20.28h17.51l2.09-6.28h-48.29a16.82 16.82 0 0 1 -16.8-16.77v-88.57a16.82 16.82 0 0 1 16.8-16.78h132.83a16.8 16.8 0 0 1 16.78 16.78v88.56a16.82 16.82 0 0 1 -16.78 16.78h-48.28l2.09 6.28h17.56a10.14 10.14 0 0 1 -.07 20.28zm-.09-7a3.15 3.15 0 0 0 2.28-.89 3.14 3.14 0 0 0 -2.13-5.39h-22.6l-6.75-20.28h58a9.8 9.8 0 0 0 9.78-9.78v-88.56a9.79 9.79 0 0 0 -9.78-9.78h-132.85a9.81 9.81 0 0 0 -9.8 9.78v88.56a9.81 9.81 0 0 0 9.79 9.78h58l-6.79 20.28h-22.42a3.18 3.18 0 0 0 -3.23 3.11 3.14 3.14 0 0 0 3.1 3.17z"/><path d="m347.58 94.89h-10v-10h10zm-30 0h-10v-10h10zm-30 0h-10v-10h10zm-30 0h-10v-10h10zm-30 0h-10v-10h10zm-30 0h-10v-10h10zm-30 0h-10v-10h10z"/><path d="m509.52 119.87h-131v-86.7h131zm-124-7h117v-72.7h-117z"/></g></svg>