<svg xmlns="http://www.w3.org/2000/svg" viewBox="0 0 542 173"><defs><style>.a{fill:#516281;}.b{fill:#0fcdc1;}</style></defs><path class="a" d="M28.75,155.78h0a10.08,10.08,0,0,1-9.88-7.86l-6.65-28.78a10.19,10.19,0,0,1,5.86-11.6l31-13.29a10.15,10.15,0,0,1,11.84,2.91l12,14.62a99.35,99.35,0,0,0,43.72-43.72L102,56.09a10.18,10.18,0,0,1-2.92-11.83l13.3-31A10.24,10.24,0,0,1,124,7.35L152.78,14a10.09,10.09,0,0,1,7.86,9.88C160.63,96.63,101.47,155.78,28.75,155.78Zm24.31-55.35a3.1,3.1,0,0,0-1.22.25L20.85,114A3.18,3.18,0,0,0,19,117.58l6.64,28.77a3.13,3.13,0,0,0,3.06,2.43A125,125,0,0,0,153.64,23.91a3.13,3.13,0,0,0-2.44-3.09l-28.78-6.64A3.2,3.2,0,0,0,118.79,16L105.51,47a3.16,3.16,0,0,0,.91,3.66L125.3,66.13l-1.16,2.47a106.37,106.37,0,0,1-50.71,50.71L71,120.47,55.5,101.59A3.14,3.14,0,0,0,53.06,100.43Z"/><path class="a" d="M481.94,163.78H406.41a10.14,10.14,0,0,1,.08-20.28H424l2.09-6.28H377.8A16.82,16.82,0,0,1,361,120.45V31.88A16.82,16.82,0,0,1,377.8,15.1H510.63a16.8,16.8,0,0,1,16.78,16.78v88.56a16.82,16.82,0,0,1-16.78,16.78H462.35l2.09,6.28H482a10.14,10.14,0,0,1-.07,20.28Zm-.09-7a3.15,3.15,0,0,0,2.28-.89A3.14,3.14,0,0,0,482,150.5H459.4l-6.75-20.28h58a9.8,9.8,0,0,0,9.78-9.78V31.88a9.79,9.79,0,0,0-9.78-9.78H377.8A9.81,9.81,0,0,0,368,31.88v88.56a9.81,9.81,0,0,0,9.79,9.78h58L429,150.5H406.58a3.18,3.18,0,0,0-3.23,3.11,3.14,3.14,0,0,0,3.1,3.17Z"/><path class="b" d="M347.58,94.89h-10v-10h10Zm-30,0h-10v-10h10Zm-30,0h-10v-10h10Zm-30,0h-10v-10h10Zm-30,0h-10v-10h10Zm-30,0h-10v-10h10Zm-30,0h-10v-10h10Z"/><path class="a" d="M509.52,119.87h-131V33.17h131Zm-124-7h117V40.17h-117Z"/></svg>