<?xml version="1.0" encoding="utf-8"?>
<!-- Generator: Adobe Illustrator 24.1.0, SVG Export Plug-In . SVG Version: 6.00 Build 0)  -->
<svg version="1.1" id="Ebene_1" xmlns="http://www.w3.org/2000/svg" xmlns:xlink="http://www.w3.org/1999/xlink" x="0px" y="0px"
	 viewBox="0 0 144.3 144.3" style="enable-background:new 0 0 144.3 144.3;" xml:space="preserve">
<style type="text/css">
	.st0{fill:#8FCDC1;}
	.st1{fill:#4F617F;}
	.st2{fill:#FFFFFF;}
	.st3{fill:#6C86AB;}
</style>
<g>
	<circle class="st0" cx="72.1" cy="72.1" r="68.9"/>
	<g>
		<path class="st1" d="M144.3,72.1c0,9.7-1.9,19.2-5.7,28.1c-3.6,8.6-8.8,16.3-15.5,22.9c-6.6,6.6-14.3,11.8-22.9,15.5
			c-8.9,3.8-18.3,5.7-28.1,5.7s-19.2-1.9-28.1-5.7c-8.6-3.6-16.3-8.8-22.9-15.5c-6.6-6.6-11.8-14.3-15.5-22.9
			C1.9,91.3,0,81.9,0,72.1s1.9-19.2,5.7-28.1c3.6-8.6,8.8-16.3,15.5-22.9S35.5,9.3,44.1,5.7C52.9,1.9,62.4,0,72.1,0
			c9.7,0,19.2,1.9,28.1,5.7c8.6,3.6,16.3,8.8,22.9,15.5c6.6,6.6,11.8,14.3,15.5,22.9C142.4,52.9,144.3,62.4,144.3,72.1z M3.2,72.1
			c0,9.3,1.8,18.3,5.4,26.8c3.5,8.2,8.4,15.6,14.8,21.9c6.3,6.3,13.7,11.3,21.9,14.8c8.5,3.6,17.5,5.4,26.8,5.4
			c9.3,0,18.3-1.8,26.8-5.4c8.2-3.5,15.6-8.4,21.9-14.8c6.3-6.3,11.3-13.7,14.8-21.9c3.6-8.5,5.4-17.5,5.4-26.8
			c0-9.3-1.8-18.3-5.4-26.8c-3.5-8.2-8.4-15.6-14.8-21.9c-6.3-6.3-13.7-11.3-21.9-14.8c-8.5-3.6-17.5-5.4-26.8-5.4
			c-9.3,0-18.3,1.8-26.8,5.4c-8.2,3.5-15.6,8.4-21.9,14.8c-6.3,6.3-11.3,13.7-14.8,21.9C5.1,53.8,3.2,62.8,3.2,72.1z"/>
	</g>
	<path class="st2" d="M131.1,75.1c0,8.2-3.2,15.9-9,21.8c-5.8,5.8-13.4,9-21.6,9.1c0,0-0.1,0-0.1,0H47.7c-4,0-7.3-3.3-7.3-7.3
		c0-1.5,0.4-2.9,1.3-4.2c0,0,0-0.1,0-0.1c0,0,0-0.1,0-0.1c0-0.1-0.1-0.1-0.1-0.1h-7.5c-4,0-7.3-3.3-7.3-7.3c0-1.5,0.4-2.9,1.3-4.2
		c0,0,0-0.1,0-0.1c0,0,0-0.1,0-0.1c0-0.1-0.1-0.1-0.1-0.1h-7.5c-4,0-7.3-3.3-7.3-7.3c0-4,3.3-7.3,7.3-7.3h7.5c0.1,0,0.1,0,0.1-0.1
		c0,0,0,0,0-0.1c0,0,0-0.1,0-0.1c-0.8-1.2-1.3-2.7-1.3-4.2c0-4.1,3.3-7.3,7.3-7.3h24.2c0.1,0,0.1,0,0.2-0.1c0,0,0,0,0-0.1
		c0,0,0-0.1-0.1-0.1c-2.9-2.5-4.6-6.2-4.6-10c0-2.3,0.6-4.6,1.8-6.6c0.2-0.4,0.6-0.6,1-0.7c0.4-0.1,0.9,0.1,1.2,0.4
		C61.5,42,66.1,44,71,44.2l29.5,0c0,0,0.1,0,0.1,0c8.2,0.1,15.8,3.3,21.6,9.1C128,59.1,131.1,66.9,131.1,75.1z"/>
	<path class="st3" d="M56.7,38.2c-0.5,0.1-0.9,0.4-1.2,0.8c-1.2,2-1.8,4.3-1.8,6.7c0,4,1.8,7.7,4.6,10.1H34.1
		c-4.1,0-7.5,3.4-7.5,7.5c0,1.5,0.5,3,1.3,4.3h-7.5c-4.1,0-7.5,3.4-7.5,7.5c0,4.1,3.4,7.5,7.5,7.5h7.5c-0.9,1.2-1.3,2.7-1.3,4.3
		c0,4.1,3.4,7.5,7.5,7.5h7.5c-0.9,1.2-1.3,2.7-1.3,4.2c0,4.1,3.4,7.5,7.5,7.5h52.7c0,0,0.1,0,0.1,0c8.2-0.1,15.9-3.3,21.7-9.1
		c5.8-5.8,9-13.6,9-21.9c0-8.3-3.2-16-9-21.9c-5.8-5.8-13.5-9.1-21.7-9.1c0,0-0.1,0-0.1,0H71c-4.8-0.2-9.4-2.2-13-5.5
		C57.6,38.3,57.1,38.1,56.7,38.2z M70.9,47.3C70.9,47.3,70.9,47.3,70.9,47.3l29.5,0c0,0,0.1,0,0.1,0c7.4,0,14.3,2.9,19.5,8.2
		c5.2,5.2,8.1,12.2,8.1,19.6c0,4.4-1,8.6-2.9,12.4c0,0-0.1,0.1-0.1,0.1c-1.1,2.2-2.6,4-4.3,5.3c-4.5,3.3-10.1,5-15.7,4.6
		c-5.7-0.4-11-2.8-15-6.9c-7.2-7.2-7.2-19,0-26.2c5.7-5.7,14.9-5.7,20.5,0c4.4,4.4,4.4,11.6,0,16c-3.4,3.4-8.9,3.4-12.3,0
		c-1.3-1.3-1.9-2.9-1.9-4.7v0c0-1.8,0.7-3.4,1.9-4.7c0.6-0.6,0.6-1.7,0-2.3c-0.6-0.6-1.7-0.6-2.3,0c-1.9,1.9-2.9,4.3-2.9,7v0
		c0,2.6,1,5.1,2.9,7c4.7,4.7,12.2,4.7,16.9,0c5.7-5.7,5.7-14.9,0-20.5c-6.9-6.9-18.2-6.9-25.1,0c-8.5,8.5-8.5,22.3,0,30.8
		c4.6,4.6,10.6,7.3,17.1,7.8c2.5,0.2,5,0,7.4-0.5c-3.6,1.7-7.6,2.6-11.8,2.7c0,0,0,0-0.1,0H47.7c-2.3,0-4.2-1.9-4.2-4.2
		c0-2.3,1.9-4.2,4.2-4.2h29.1c0.9,0,1.6-0.7,1.6-1.6c0-0.9-0.7-1.6-1.6-1.6H34.1c-2.3,0-4.3-1.9-4.3-4.2c0-2.3,1.9-4.3,4.3-4.3h37.4
		c0.9,0,1.6-0.7,1.6-1.6c0-0.9-0.7-1.6-1.6-1.6H20.5c-2.3,0-4.2-1.9-4.2-4.2c0-2.3,1.9-4.3,4.2-4.3h51.1c0.9,0,1.6-0.7,1.6-1.6
		c0-0.9-0.7-1.6-1.6-1.6H34.1c-2.3,0-4.3-1.9-4.3-4.3c0-2.3,1.9-4.2,4.3-4.2h42.7c0.9,0,1.6-0.7,1.6-1.6c0-0.9-0.7-1.6-1.6-1.6H66.4
		C61.1,55.5,57,51,57,45.7c0-1.1,0.2-2.2,0.5-3.3C61.3,45.4,66,47.1,70.9,47.3z"/>
</g>
</svg>
