<?xml version="1.0" encoding="utf-8"?>
<!-- Generator: Adobe Illustrator 24.1.0, SVG Export Plug-In . SVG Version: 6.00 Build 0)  -->
<svg version="1.1" id="Layer_1" xmlns="http://www.w3.org/2000/svg" xmlns:xlink="http://www.w3.org/1999/xlink" x="0px" y="0px"
	 viewBox="0 0 300 300" style="enable-background:new 0 0 300 300;" xml:space="preserve">
<path d="M41.7,274L41.7,274c-8.3,0-15.6-5.7-17.5-13.9l-11.9-51.7c-1.9-8.4,2.4-17,10.4-20.5l55.6-23.8c7.3-3.1,15.9-1,20.9,5.1
	l21.6,26.4c34-17.2,61.7-44.8,78.9-78.9l-26.4-21.6c-6.1-5.1-8.2-13.6-5.1-20.9l23.9-55.7c3.5-7.9,12.1-12.3,20.5-10.4l51.7,11.9
	c8.2,1.8,13.9,9.1,13.9,17.5c0.2,62.7-24.8,122.9-69.2,167.1C164.5,249.2,104.4,274.2,41.7,274z M85.3,174.7c-0.8,0-1.6,0.2-2.3,0.5
	L27.4,199c-2.6,1.2-4,4-3.4,6.8l11.9,51.6c0.6,2.7,3,4.6,5.7,4.6l0,0c59.5,0.2,116.6-23.5,158.6-65.7c42.2-42,65.9-99.1,65.8-158.7
	c0-2.8-1.9-5.2-4.6-5.8l-51.6-11.9c-2.8-0.6-5.7,0.8-6.9,3.5L179.1,79c-1,2.4-0.3,5.2,1.7,6.9l33.7,27.6l-2,4.2
	c-18.8,39.9-51,72-90.8,90.8l-4.2,2l-27.6-33.7C88.8,175.5,87.1,174.7,85.3,174.7L85.3,174.7z"/>
</svg>
