<?xml version="1.0" encoding="utf-8"?>
<!-- Generator: Adobe Illustrator 24.1.0, SVG Export Plug-In . SVG Version: 6.00 Build 0)  -->
<svg version="1.1" id="Layer_1" xmlns="http://www.w3.org/2000/svg" xmlns:xlink="http://www.w3.org/1999/xlink" x="0px" y="0px"
	 viewBox="0 0 300 300" style="enable-background:new 0 0 300 300;" xml:space="preserve">
<path d="M278,37.6c0.2,62.7-24.8,122.9-69.2,167.1c-44.2,44.5-104.4,69.4-167.1,69.2l0,0c-8.3,0-15.6-5.7-17.5-13.9l-11.9-51.7
	c-1.9-8.4,2.4-17,10.4-20.5l55.6-23.8c7.3-3.1,15.9-1,20.9,5.1l21.6,26.4c34-17.2,61.7-44.8,78.9-78.9l-26.4-21.6
	c-6.1-5.1-8.2-13.6-5.1-20.9l23.9-55.7c3.5-7.9,12.1-12.3,20.5-10.4l51.7,11.9C272.3,22,278,29.2,278,37.6z"/>
</svg>
