<?xml version="1.0" encoding="utf-8"?>
<!-- Generator: Adobe Illustrator 24.1.0, SVG Export Plug-In . SVG Version: 6.00 Build 0)  -->
<svg version="1.1" id="Layer_1" xmlns="http://www.w3.org/2000/svg" xmlns:xlink="http://www.w3.org/1999/xlink" x="0px" y="0px"
	 viewBox="0 0 300 300" style="enable-background:new 0 0 300 300;" xml:space="preserve">
<path d="M269.7,117.6h-89.6V27.9c0-11-8.9-19.9-19.9-19.9h0h-19.9c-11,0-19.9,8.9-19.9,19.9v89.6H30.7c-11,0-19.9,8.9-19.9,19.9
	v19.9c0,11,8.9,19.9,19.9,19.9h89.6v89.6c0,11,8.9,19.9,19.9,19.9h0h19.9c11,0,19.9-8.9,19.9-19.9l0,0v-89.6h89.6
	c11,0,19.9-8.9,19.9-19.9v0v-19.9C289.6,126.5,280.7,117.6,269.7,117.6L269.7,117.6L269.7,117.6z"/>
</svg>
