<svg xmlns="http://www.w3.org/2000/svg" viewBox="0 0 542 71"><defs><style>.a{fill:#516281;}</style></defs><path class="a" d="M466.2,52.18l-.58,2-.39-5.4-.16,0-.66,3.4-.41-1h-.23L463.23,59H463V49.32l-.37-.08-.33.4-.28-1.72-.36,0c-.28,3.55-.57,7.1-.85,10.66h-.11c-.12-1.28-.24-2.56-.37-3.83l-.16,0-.19,1c-.73-.72-1.07-.46-1.21.36a22.22,22.22,0,0,1-.95,3.84c-.25-3.6-.51-7.2-.79-11.2l-1.86,3.86-.28,0c-.16-1.91-.33-3.82-.49-5.73h-.2c-.12,1.6-.24,3.19-.35,4.78h-.15c-.15-1.1-.31-2.2-.48-3.46-1.06.88-1.84,6.42-2,11.61l-.42-7.68h-.13l-.53,5H450l-.35-5.24h-.24q-.24,3.93-.5,7.87h-.19c-.22-3.13-.43-6.27-.64-9.4h-.29l-.34,5.36-.48-.79c-.38,2.14-.76,4.22-1.14,6.31l-.23,0c-.11-2.24-.23-4.48-.34-6.72h-.63c-.13,2.58-.26,5.15-.4,7.86-.4-2.91-.78-5.7-1.16-8.49l-.47,0L441,62.94c-.09-1.48-.18-3.07-.27-4.65l-.23,0-.36,1.58-1-.19V50.1h-.37l-.45,5.73H438l-2.12-6.13-.42,0-.89,5.42-.17,0c-.16-.95-.33-1.89-.49-2.84l-2.2,5.47c-.24-3.53-.48-6.87-.7-10.22l-.54,0c-.12,2.63-.25,5.26-.39,8.29-.43-3.62-.82-6.82-1.2-10l-.91.07-.28,4.1h-.13c-.09-.61-.19-1.22-.28-1.85-2.62.62-1.51,2.77-2.19,4.12l-.27-1.06-.34-.12a15.22,15.22,0,0,0-1.23,2.71,25.66,25.66,0,0,1-.65,3.41V48.67h-.48c-.19,3.12-.39,6.25-.58,9.37h-.33V53.23h-.44l-.22,4.6h-.39V44.38h-.45c-.19,2-.28,4-.61,5.94s-.85,3.67-1.39,5.44c-.12-.88-.19-1.4-.26-1.93h-.19l-.27,2h-.15l-.57-4.8H416c-.07,1-.14,1.95-.22,2.92l-.11,0c-.11-1.67-.23-3.33-.34-5l-.15,0-.88,4.27-.21.05-.46-2.67-1.19,2.75-1-.67c-.12,1-.24,2-.36,3h-.24l-.29-5.78h-.25l-.82,5.81h-.16L408.91,52l-.35,0v5.39l-.33,0L408,54l-.55,1.64-.44-3.5-.36,0c-.11,1.65-.23,3.3-.34,5l-.22,0-.71-2.06h-.27c-.05.78-.11,1.57-.17,2.37-.14,0-.19,0-.21,0s-.14-.23-.37-.64c-.14,2.5-.27,4.71-.39,6.93h-.19l-.55-18h-.31c-.13.93-.25,1.86-.39,2.88l-.93-.57c-.87,3.48-.59,7.18-2.72,10.53-.24-2.52-.46-4.87-.69-7.22H398l-.49,11.09-.3,0L395.82,54h-.21l-2.09,15.28h-.24l-.62-15.79-.29,0-.42,2.7-1.42-9.59L389.67,48c-.14-1.46-.25-2.73-.39-4.15l-2,2.82-.62-1.43L386,49.8h-.39l-.65-1.32-1.19,10.1h-.31v-8h-.55l-.45,8.85h-.25V48.58h-.47q-.24,7-.47,13.9h-.31V43.92l-.59-.07a23.78,23.78,0,0,0-2.45,9.73c-1-1-.08-2.61-2-2.81-.27,2.48-.54,5-.81,7.36l-.3-.57-.5,1.28c-.1-1.69-.18-3.1-.26-4.51h-.43c-.86,3.43-.27,7-.87,10.45V51.84c-.59,1.26-1.17,2.42-1.66,3.61a4.61,4.61,0,0,0-.35,1.67c0,3.22,0,6.44,0,9.67h-.45V50.21l-1.62.2c-.19,2.05-.38,4.18-.58,6.31l-.15,0c-.1-.86-.2-1.73-.31-2.6l-.35,0A16.83,16.83,0,0,1,366.7,57c-1.32,3.65-1,7.45-1.24,11.19-.26-3.29-.53-6.57-.79-9.89a1.78,1.78,0,0,0-.39.07l-.55.74c-.25-2.8-.48-5.2-.67-7.61A19.51,19.51,0,0,0,363,49a4.9,4.9,0,0,0-.91-1.47l-.56.15-.68,3.73-.3-.67h-.47c-.59,4.15-1.18,8.29-1.69,11.9-.15-1.41-.36-3.38-.57-5.37l-.56,0L357,60.58H357l-.39-4.08h-.16q-.23,2.87-.43,5.73h-.3c-.13-1.23-.22-2.46-.44-3.67-.06-.37-.51-.68-1.09-.85L354,61.28h-.29V47.34l-.55-.05c-.15.64-.29,1.26-.46,2l-.45-1.87h-.39l-.51,5.28-.3-1.11-.2,0c-.18,1.71-.35,3.42-.53,5.13l-.21,0L349.75,53h-.23l-.43,9-.47.05-1.18-7.43h-.29v4.24l-.27,0-.45-1.1-.24,0v4.5h-.29l-.37-2.76h-.19c-.08,1.24-.15,2.49-.22,3.56-.37-4.23-.77-8.63-1.15-13l-.24,0-.37,3.82L343,53l-.42-.08-.84,4.18c-.06-.63-.12-1.34-.19-2h-.21l-.48,5.8h-.21l-.36-4.6h-.43V66.55h-.51l-.94-12.21-.41,0c-.79,2.68-.38,5.49-.53,8.23s0,5.62,0,8.44h-.57V59.59l-.34,0-.24.62-.48-.56c-.07.82-.14,1.52-.2,2.22h-.11q-.19-3.52-.38-7.07h-.19L334.71,58l-.14,0c-.3-3.55-.6-7.09-.91-10.64-1.7,2.45-.59,5.26-1.34,7.95-.1-1.08-.19-2-.3-3.3-2.51,3.63-1.12,7.47-1.93,10.95-.34-3.38-.68-6.82-1-10.26l-.55,0-1.77,14.67c-.4-4.07-.82-8.38-1.25-12.81l-.28.6c-.51-3-1-6.08-1.57-9.19l-.51,0-.42,7.08h-.17l-.3-5.77-.17,0c-.13,1-.26,2.08-.41,3.25l-1.08-1.33v10h-.42l-.49-12.6-.48,0-1.3,4.7-.38-.95c-.3,1.7-.55,3.09-.83,4.63l-.81-.64-.31,1.14c-.14-1.68-.26-3.1-.38-4.51H315l-.52,4.49-.12,0c-.11-.86-.23-1.72-.34-2.59h-.25c-.19,3-.38,6.08-.56,9l-1.05-9.49H312c-.06.49-.11,1-.2,1.77L311,53c-.08,1.17-.15,2.14-.22,3.11L309,52.92l-.49.53L307.14,48h-.23L306,53h-.34V44l-.55,0L303.34,52c-.09-1-.2-2.16-.33-3.55l-.56.92c-.09-.54-.16-.93-.22-1.32l-.39,0-.68,6.13c-.13-2.69-.25-5.14-.38-7.59l-.38-.05c-.59,3-1.18,6.05-1.67,8.53l-.38-4.74-.43,0-.53,5.23-.62-.44-.47,1.28L296,52.33h-.19l-.46,3.06-.58.05c-.26-1.94-.53-3.88-.76-5.82s-.42-3.93-.65-6.11c-1.7,2.32-1.48,4.83-2,7.24-.12-1.45-.23-2.9-.38-4.73l-.84,1.77-.8-.5V56L289,56c-.12-1.08-.25-2.16-.38-3.25l-.26,0-1.91,4.15c-.15-2.9-.31-5.84-.47-8.79h-.37l-1.51,11.08c-.37-2.19-.79-4.7-1.22-7.21l-.4,0-.66,3.18L280,49.68c-.59,2.91.08,5.92-1.37,8.68l-.53-8.83h-.67L277,55.76c-.17-2.76-.31-5.2-.45-7.63h-.14l-.22,2-.63-2.3-.5,0c-.16,3.56-.33,7.13-.47,10.35-.3-3.61-.62-7.57-.94-11.54l-.61,0c-.88,2.34-.55,4.89-1,7.62l-.84-2.82-.5,1.34s-.07,0-.08,0-.18-.22-.51-.65c-.53,2.65-1,5-1.45,7.29l-1.62-12.19-.59-.09-1.57,4-.73-1.9c-1.92,2.19-1.1,4.7-1.74,7V47.83H262q-.19,3.7-.37,7.4h-.18L261,48.59h-.24c-.06.7-.09,1.4-.18,2.11s.32,1.59-1.15,1c-.1,1.71-.2,3.32-.29,4.92l-.17,0-.36-3.18h-.23l-.2,2.81H258c-.13-2-.25-4-.38-6h-.19L257,56.26l-.37.06a25.69,25.69,0,0,1-1.44-7.71l-.38,1.19-.71-.87c-.08,1.09-.15,2-.24,3.06-.16-1.08-.29-1.94-.42-2.79h-.2L253,50.45l-.85-2c-.14.59-.22.84-.25,1.08-.38,3-.75,6.09-1.14,9.13a1.39,1.39,0,0,1-.63.93l-.84-7.84-.45,0-.51,9.76H248V48.91l-.73,0L246.43,55c-.71-2.35-.73-4.79-2.17-6.94l-.47,14.28h-.32c-.16-3-.31-6-.47-9.1-1.6,1-1.4,2.41-1.46,3.73-.09,1.57,0,3.14,0,4.95L240,57.32l-.51.09-.29,4.86H239l-1-11.93-.46,0-.27,3.89h-.2c-.08-.44-.17-.88-.25-1.32h-.17l-.23,1.46h-.48V44.69l-.81,0-.84,15.25h-.16c-.14-1.74-.29-3.49-.44-5.23h-.19l-.43,2.44-.62-3.1h-.26l-.3,2.88h-.19l-.15-.76-.18,0-.24,3.59-.13,0-.27-5.28h-.43v9.64H230c-.21-2.11-.43-4.21-.66-6.57l-.82,1L228,47l-.35,0-.53,5.32h-.16l-.25-1.67h-.22l-.51,4.89h-.14l-.32-2.63h-.2l-.48,5.82h-.16L224.28,53h-.38v12.6h-.67V48.72l-.68,0-.4,7h-.26V51.94a2.14,2.14,0,0,0-1.6,2.4v.11c-.22,2.92-.33,5.85-.63,8.78l-.24-2.88h-.22l-.27,4h-.51V48h-.51l-.4,6-.25,0c-.15-1.28-.31-2.56-.46-3.83l-.56,0c-.31,2.58-.63,5.17-1,7.75l-.15,0-.26-4.38h-.22l-.27,1.66-.39,0-.43-5.2-.25,0-.56,3.89a3.68,3.68,0,0,0-.13-1c-.28-.58.24-1.37-.92-1.8-.51-.2-.45-1.74-.89-2.7l-.54,4.24-1.51-3.75-.61.06-.45,6.51h-.11c0-.73-.1-1.45-.16-2.29a9.08,9.08,0,0,0-1.22.87,12.81,12.81,0,0,0-1.05,1.33v-10h-.41c-.12,1.62-.24,3.25-.37,5.13l-.46-1.23-.55,0L203,53.19h-.21l-.3-6.1-.21,0-1.52,6.64-.15,0-.42-6h-.31l-.38,7.07h-.2c-.1-1.1-.21-2.2-.31-3.3h-.32l-.33,6h-.25c-.15-2.88-.29-5.75-.43-8.63h-.3l-1,9.06-.19,0-.77-2.38-.27,1H195l-.61-5.81-.31,0-.36,6.77h-.42V49.4l-.34,0-.29.83-.33,0c-.15-1.25-.3-2.5-.46-3.75h-.41c-.15.79-.31,1.58-.49,2.51l-.77-5.54-.68-.07L188.37,48c-.13-1.26-.28-2.7-.44-4.13l-.58-.09a7.25,7.25,0,0,0-.71,1.84c-.24,2.41-.36,4.84-.75,7.28v-8h-.45c-.18,2-.36,3.92-.55,6.05l-.79-.94c-.15,2.49-.29,4.66-.42,6.84h-.19V48.12h-.37l-.36,6.78-.35.05-.94-2.6c-.13,2.34-.24,4.36-.35,6.39h-.27l-.63-15.52c-.92.2-.92.2-1.53,4.89-.13-2.14-.25-4.29-.38-6.43l-.49-.06c-.46,2.47-.91,5-1.38,7.46-.11-1.72-.22-3.45-.34-5.18h-.38l-.23,1.87-.19,0L175,43.28l-.44,0c-.06,1.28-.14,2.56-.18,3.85s-.06,2.67-.11,4-.16,2.76-.32,4.13c-.18-2.48-.36-5-.53-7.45-.7,3.8-.34,7.72-1.44,11.46l-.45,0L171,47.45l-.36-.06L169.16,53l-.3-4.54h-.25l-.52,6.32c-.38-1.83-.12-3.74-2.37-4.8l-1.38,7.35-.13,0V42.19c-2.23,4.16-2.08,8.67-3.15,13.05-.18-2.7-.35-5.39-.53-8.09h-.38l-.49,17.44h-.38v-22c-2.18,2.62-1.44,5.7-2,8.77l-.49-1.46h-.37c-.15,1.77-.29,3.54-.43,5.31h-.16l-.2-2.29h-.28c-.13,2.32-.26,4.63-.38,7h-.11l-.33-5.73h-.24l-.14,1.8-.42.13a9.69,9.69,0,0,1-.79-2c-.36-2.63-.54-5.3-1-7.92a16.17,16.17,0,0,0-1.37-3.24l-.48,4.74-.23,0c-.12-.78-.24-1.57-.42-2.72l-.58,2c-.24-.87-.39-1.42-.59-2.13l-1.61,6.58-.5,0-.44-3.48h-.3v8.89c-1-3-.09-6.27-1.65-9.23l-.95,8-.65,0V44.07h-.71V54l-.34,0-1.26-9.77h-.46c-.33,3.57-.65,7.13-1,10.69l-.22,0-.54-6.79h-.21l-.25,1.17-.36,0-.57-2.61H136v9.75h-.61v-9h-.61v7.31l-.51,0-.33-6.62-.25,0-.48,5.49h-.28l-.42-7.29h-.23c-.12.83.07,1.94-.43,2.45-1.26,1.29-.9,2.83-1.18,4.32-.76-.7.34-2.08-1.24-2.68-.1-1.78-.21-3.85-.33-5.93h-.25L128.18,54,127,49.77l-.31,0c-.19,1.28-.39,2.55-.58,3.82h-.37l-.53-9-.41,0L123,56.33l-.31,0-.37-7.39h-.2l-.47,2.75c-.12,0-.18,0-.19,0s-.13-.23-.31-.56c-.09,1.47-.17,2.74-.25,4h-.41V48.22H120c-.44,2.48-.88,5-1.36,7.71l-.59-3.15h-.3L117.26,55l-1-1.59c-.15,1.52-.26,2.7-.37,3.88l-.15,0-.89-9.35-.6,0-.39,2.92-.23,0-.81-2.69-.31,0c-.46,1.71-.92,3.42-1.35,5L111,51.6l-.43,1.13-.48-.66-.42,2.47-.21,0-.11-2.23-.2,0L109,53.72h-.22v-5l-.52,0a86.93,86.93,0,0,0-1.51,13.9h-.58V45.34h-.57l-.37,4.44-.67-1.43-.37,1.48-.59-.73c-.25,1.86-.46,3.49-.68,5.13h-.12l-.35-4-.75,2c-.26-1.45-.52-2.85-.78-4.25h-.45l-.26,2.34-.25,0L99.3,47l-.58,0-.84,8.93-.34-4.38h-.19q-.24,5.2-.47,10.39H96.5V45.55h-.26l-1.38,5.07-.66-7h-.52c-.08.34-.14.68-.24,1-.54,1.76-1.08,3.51-1.7,5.5l-1-1.4-.45.56c-.13-2.07-.25-4-.38-5.94l-.39-.15c-.26.42-.69.83-.75,1.27-.48,3.69-.89,7.37-1.67,11.12-.34-1.93-.68-3.85-1-6l-.65,1.56-.34.05L84.3,46.1h-.19L83.41,57H83V45.44l-.49,0-1.86,9.29h-.14l-1-10.46-.46,0c-.54,4.18-1.08,8.35-1.6,12.41-.16-1.42-.33-3-.5-4.52h-.19c-.1,1.42-.16,2.84-.32,4.25,0,.37-.4.71-.61,1.06l-.51-.15V48.42H74.18l-.46-.32L72.84,52l-.24-2-.29,0L72,51.51c-.34-2.55-.69-5.11-1-7.67l-.59,0-.72,10.6-.46,0c-.8-1.88.1-4.07-.81-5.93l-.54,0-.38,4.59h-.19c-.13-1.29-.25-2.58-.37-3.88h-.48L66,55.8h-.2l-.61-9.25h-.22l-.87,4.75-.34,0-.32-1.1h-.24c-.26,1.73-.53,3.47-.8,5.2l-.31,0-.31-6.1-.18,0-.35,1-.38-2.88h-.45v9.82H60l-.42-4.47h-.26L58.82,56l-.19,0-.84-6.46h-.48L56.9,52.8l-.11,0q-.24-5-.49-10H56l-.23,1.06-.18,0-.35-3.41-.16,0-.48,2.26L53.93,42,53.2,43.1l-.37-3.29-.46-.08c-.89,2.88-1.77,5.76-2.62,8.53l-1.49-.58c-.13-1.27-.27-2.71-.42-4.15h-.22l-.34,6.4-.17,0-.36-2.38h-.22l-.22,1.5h-.16l-.41-2.87-.19,0c-.13,1.41-.26,2.83-.4,4.24h-.24l-.39-5.73-.33,0-.51,5H43.2V39.29l-.84,0c-.4,3.91-.79,7.81-1.2,11.82l-.71-6.77h-.34l-.35,3L38.6,43.7l-.31,0-.39,2.15-.57-1.57h-.22l-.58,7.63-.19,0-.63-5.78h-.18c-.33,2.79-.65,5.58-1,8.37h-.5c-.87-3.68-.84-7.47-1.32-11.23L32.32,49l-.39.07L31,45.86c-.7,0-.7,0-1.31,3.51L29.1,48c-.44,1.95-.85,3.82-1.26,5.68l-.24,0V42.58h-.36l-.68,4.61-.54.05-.86-4.39L24,47.23h-.32l-.48-6.37h-.37L21.68,50.1l-.16-.05Q20.86,47,20.21,43.9l-.26,0-.51,6.24h-.23l-.45-8.46-.43-.1-1.22,3-.47-5.36-.36,0-.48,1.32-.5-1.68-.55,2.68-.66-2.21L12.2,43l-.3-2.33-2.43-1.1L8.41,41.92l-.48-.23L7.7,43H7.53l-.38-4.8L5.06,39.73l-.39-1.28-.35-.05L2.86,43.25l-.24,0-.31-3.47L2,39.69,1.43,41.2,1,39.61l-.63.56c0-.07-.14-.13-.14-.2C.12,37.3,0,34.64,0,32c0-1.15-.1-2.41,1.57-2.71l.48,1.33.22,0,.38-4.08,1.7,3.7,2.82.21.32-3.23.3-.09,1.78,3.55c.69-.28.94-1.53,2.24-1.16l.32-2.62c.47.62.95,1.35,1.54,2a18.34,18.34,0,0,0,1.72,1.49l.5-1.7.54,2,.24,0,.39-4.09,1.18,1.87.48-.1c.21-3.35.43-6.7.64-10h.19l.26,4.61L21.12,20l.46.05,1.25,8.27.29,0q.42-3.36.86-6.72l.5,0,.25,2.18.23,0,.83-4.49.37,0,1,7.88h.37v-12l.48,0,.43,2.48.49-1,.45.73.35-.57L30,17l.6,7.71H31l.57-7.11.44,0,.73,7.94,1-10.87.32-.06,1.31,6,.49-.07.38-5.91h.17l.71,7.64.65-1.16.42,1.05.32.06,1.1-5.11.13,0,.33,5.35h.21L41,19.91c.56,3.58,1.06,6.8,1.56,10h.55v-9.5l.63,0,.38,4.23h.24L45,20.19h.19l.4,1.69.32-1.4.25,0,.45,1.95.55-1.81.29,1.5.25,0,.36-2.78.26,0,.55,6.28h.19l.64-4.42h.61c.13.84.25,1.68.39,2.52a24.89,24.89,0,0,0,.66,3.78,10.54,10.54,0,0,0,1.46,2.36l.29-3.52h.22l.18,1.12.34.22.54-.95.67,2.55h.19l.35-2.73.51.54c.13-.22.38-.43.39-.65.08-1.58.09-3.15.18-4.73a5,5,0,0,1,.88-3.45c.48-.58.26-1.66.45-2.49a22.25,22.25,0,0,1,.67-2.19l.52,0c.42,2,.83,4,1.22,5.93l.47-1.35.5,2.23h.28l.4-8.22h.17l.56,4c1.14-.48-.19-2.16,1.59-2,.19,2.51.38,5.06.57,7.6h.38c.19-3.79.37-7.58.56-11.62l1.4,7.92.53-.06.35-4.73h.2l.2,2.9h.27L69.28,15c1.06,3.63.39,7.49,2,11l.42,0c0-1.54-.07-3.08,0-4.62s.31-3,.47-4.55h.63l.46,3.39c1.46-1.28.76-3,1.29-4.53l.42,5.28H75l1.13-10.28h.21l.35,6.88h.44V8.55h.38c.48,5.2-.25,10.53,1.82,16.07.36-.83.72-1.26.73-1.71.06-2.22,0-4.43,0-7,2.51,2.66,1.23,5.63,2.45,8.17l.78-6.49h.34c.15,1.33.29,2.66.43,4l.27,0,.55-4.23,1,1.47.48,0,.77-6.07h.18c.48,4.45,1,8.89,1.46,13.36l1,.07c.14-1.65.27-3.29.41-4.94l.25-.05.63,3.55.24,0,.34-4.35c1.43,1.57-.2,4,2.05,5.11l1-6,.24,0,1.47,4.19V10.83h.39c0,.35.07.7.12,1l1.53,12.81.54,0c.27-3.14.55-6.28.82-9.42h.34l.33,3.44.49.06c.2-1,.4-2,.69-3.32.19,1.55.34,2.75.49,3.94h.19l.27-2.55h.21l.52,7.36.27,0,1-4.32.3,0,.58,5.31.58,0V10.63h.33q.85,6.54,1.69,13.07l.52,0V16.9l.19,0,.51,3.94h.49l.34-.78.26.53h.32V10.89c.83,3.62.09,7.39,2.09,11.09l.51-3.47.22,0c.18.85.36,1.71.53,2.57h.39c.44-4,.88-8,1.32-12.06l.41,1.8.32,0,.62-1.17c.24,2.63.46,5.1.68,7.59l.36,0,.37-5.56h.15c.26,2.27.53,4.54.79,6.81l.75,0c.14-2.51.28-5,.39-7.1.44,2,1,4.33,1.48,6.7l.64,0c.11-1.58.22-3.16.36-5.05.56,4.21,1.08,8.12,1.61,12h.28l.67-13.06.38,0c.11,1.19.21,2.37.32,3.56h.34V9.72h.43l.35,7.23h.33V10.76h.64v9.7h.51q.18-3,.38-5.92h.25l.38,3.19h.23V12.18l.38,0,.19,2.48h.21l.27-.71h.26l.66,7.58h.18l.42-7.34h.37l.25,1.66.27,0,.29-3.82h.23l.56,10.38h.51V9.59H136v8.3h.4l.35-2.8.24,0,.5,3.8.17,0,.35-3.51h.17l1.2,8.62,1.06-5.76.35-.07c.21.67.39,1.35.54,2.05a14.66,14.66,0,0,0,.46,2.41c1-2.43.54-5,1-7.59.45,2,.89,4,1.32,5.9l.52-.05.33-6.21.36,0v5.94l.31,0c.27-2.18.54-4.35.82-6.53h.21c.09,1.3.17,2.61.27,4.09l.44-.33,1.35,6.75.76-.05c.11-2,.21-4.1.32-6.16H150c.1,2.07.21,4.14.31,6.4,2.3-3.4,1.68-7,2.12-10.41l.24,2.65h.16l.23-2,.44,1.44.42,0L155,8c.13,1.53.26,3.13.39,4.72l.2,0L156,11c.16,2.14.3,3.92.43,5.7h.49l.29-5.21c.76,5.55-.49,10.92,2.07,16.35V11.7h.28c.14,2.38.29,4.76.43,7.14,1.37-.22,1.41-.34,1.94-4.72.16,3.43.33,6.87.51,10.53l.84-.69c.17,1.39.33,2.67.48,3.95h.4V9.67h.3l.49,5.79h.25l.21-1.88.12,0,.37,3.62h.26l.57-5.25.86,5.29c1.94-2.82,1.22-5.75,1.8-8.51,0,.58,0,1.17,0,1.75a11.73,11.73,0,0,0,1.81,7.06V7.77l.54,0c.21,2.09.42,4.18.68,6.62l.47-1.19c.15,1.48.26,2.71.39,3.94l.38,0,.33-1.64h.11l.51,10.94h.34l.35-2.27h.18c.17.9.34,1.8.52,2.7h.4V19.8h.44c0,1.28,0,2.56,0,3.83,0,.42-.59,1.46.83,1.29a21.27,21.27,0,0,1,.62,2.41c.14-2.75.26-5.14.38-7.53h.12c.21,2,.41,4,.65,5.95a8,8,0,0,0,.92,0q.45-8.31.91-16.62h.24c0,1.66,0,3.32,0,5a14.87,14.87,0,0,0,.84,2.33c.29,1.27.64,2.53,1,3.75v-14H184v7.6l.31,0,.52-.81c.24,3.25.47,6.26.69,9.27h.39V12.72c.67,4.31-.15,8.75,2.34,12.84v-8h.64v8.58l.45,0c.12-.48.25-1,.45-1.75l.61,1.53.4,0V16.79H191l.47,3.7h.46l.27-3.18.24-.05L193,19l.24,0V11.52l.49,0,.54,6.4.29,0,.42-2.93h.22l.19,1.7h.17c.14-.95.27-1.91.41-2.93l.28,1.52.27,0L197,14c.1.57.2,1.16.31,1.74h.39V7.66h.59c0,1.35-.05,2.71,0,4.06,0,.32.5.62.77.93l.42-.26.42,7.64h.2l.38-4.12,1.13,2.85c.09-.79.16-1.43.23-2.06l.14,0,.33,5h.2l.32-6.43H203l.49,4.52.28,0,.24-2.08h.26l.42,6.61h.45V14.12c.32,3,.32,3,2.41,4.08V10c.9,3.27-.54,6.86,2.33,9.86.13-2.66.26-5.24.41-8.2l.82,5.75.3,0,1.43-5c.14,1.72.32,3.79.49,5.86h.25l.71-1.88.46,1.19c.15-3.32.3-6.38.46-9.65.46,4.38-.11,8.65,1.32,12.71h.52V11.57h.35l.42,8h.31l.44-7.83.23,0,.37,4.38h.36V8h.38q.24,4.09.49,8.2h.41c.19-1.52.38-3,.62-5l.24,2,.26,0,.08-1.69.41,0V21H223c.15-2.95.3-5.9.45-9,.17,2.72.32,5.26.48,7.79h.35a15.24,15.24,0,0,1,.19-1.8c.17-.81.44-1.6.67-2.4l.56.06c.19,1,.37,1.94.56,2.9l.5,0V11.59h.68v9.53h.47l1.32-15.18h.08c.08,1.63.17,3.26.25,4.9l.4,0c.14-.74.27-1.48.33-1.84l.43,1.87h.35c.21-1,.41-2,.62-3.05.2,1.55.4,3.07.59,4.57h.51c.07-1,.15-1.89.22-2.84h.22l.37,5.88h.25V9.58h.21l1.07,14.72.41,0c.35-5.26.71-10.51,1.07-15.89.46,3.15.91,6.17,1.35,9.2l.39,0,.31-5.31.61,2.19.28,0a46.11,46.11,0,0,0,1.31-4.61c.27-1.57.22-3.2.5-4.79l1,7.78.59.06c.21-1.27.42-2.54.64-3.89.59,4.19.09,8.45,1.47,12.53l1.14-13.68h.17c0,1.1-.43,2.44.09,3.24,1.11,1.69.89,3.52,1.12,5.32l.46,0V4.23h.67v15l.67.05c.48-2.68,1-5.36,1.48-8.31,0,.9-.15,1.63.14,2.11,1,1.58,1,3.3,1.24,5a14.4,14.4,0,0,0,1.37,3.18l.34-.21.29.33.34-1.14.51,1.5h.31V11.6h.46v4.46H256l.57-4.4H257l.54,4.11h.18q.17-3,.32-6.08l.22,0a9.15,9.15,0,0,0,.1,1.38c.4,2.08.83,4.15,1.33,6.66.16-1.39.27-2.36.37-3.34h.28l.37,3.83H261c.14-1.34.29-2.68.44-4h.26l.4,7.85h.19l.4-7.68h.09l.43,5.37.91-.47.35,1.67h.31V13.63h.44v7.69c1.34-1.94,2.39-3.42,2.33-5.48A50.49,50.49,0,0,1,268,9.55c.85,1.45-.64,3.51,1.46,4.91l.29-2.71c.32,2.2.6,4.14.89,6.07H271l1-5.12h.24l.82,6.66.57,0c.26-1.29.46-2.59.61-3.9s.11-2.71.25-4.06c.36,2.74.73,5.47,1.1,8.21l.39,0,.22-2.08.29,1.59h.14l.48-9.17h.33v9.47H278q.44-6.76.88-13.54h.32c.13,2.51.27,5,.4,7.54l.66.05c.14-1,.23-2,.45-3.05a11.94,11.94,0,0,1,.68-1.85l.42.1c.13,1.7.26,3.4.38,5.11h.23c.14-1.52.29-3,.43-4.57l.25,0,.36,3.93h.37V3.75h.33c.07,1.8.21,3.6.44,5.38A27,27,0,0,0,286.29,15V6.14h.31c.3,4,.61,7.9.91,12,1.72-3.48.88-7.2,1.55-11.1.59,6.23-.09,12.21,2.16,17.93V15.1h.24l1.62,10,.2-.05,1.53-10.56.56,0,.58,1.4q.19-3.37.34-6l1.85,9.66.31,0c.12-1.93.23-3.86.35-5.79.2,1.29.41,2.57.65,4.07l.6-1c.18,2.19.34,4.21.51,6.23h.23c.12-2.39.24-4.77.35-7.17l.14,0c.11,1.67.21,3.35.32,5H302c.11-.45.23-.9.44-1.74l.4,1.81h.38V10.52h.7c0,2.33-.11,4.66,0,7,.08,1.28-.52,2.71,1,3.85.49.37.24,1.61.32,2.46h.38V8.29h.61v12.6l.57.05,1.66-6.82,1.19,4,.69-.08V8.47h.5v6.11h.33l.24-1.75.26-.06.39,1.74c1.59-2.24.47-4.79,1.24-7q.27,4.07.54,8.18h.2l.24-4h.15q.25,3.57.49,7.16h.21l1.13-9.65.3,0,.62,8.69.53,0V11.33h.46v8.39l.34.06.65-1.24c.12,1.81.21,3.27.31,4.72h.48V14.51h.23l1.57,5.27.55-.05V12.48h.63v10l.55.06a8.08,8.08,0,0,0,1.31-4.4c.13-1.61.07-3.24.13-4.86a38.27,38.27,0,0,1,.43-4.92v4.82h.27l1.06-10h.18c.05.65.11,1.29.2,2.33l.53-1.69c.32,4.51.64,9.07,1,13.63h.65c.32-3.06.64-6.12.91-8.78.21,2.06.45,4.51.7,7l.41.07,1.24-3.52c.13,3.1.27,6.17.4,9.24h.73l1.12-12.1h.12v4.4h.48V6.88h.35c.06,1,.13,2.08.2,3.12H336c.34-3.21.67-6.43,1-9.65h.2l.54,14.11h.71V7.25l1,.43V3.11l.29,0,1.13,12.28h.66l.31-5h.36a22.17,22.17,0,0,0,0,3.36,14.75,14.75,0,0,0,1,2.75l.69-.13V5.3c1.11,2,0,4.32,1.36,6.22l.56,0V2.29l.71,0c.29,3.63.57,7.26.86,10.88l.7,0,.9-6.83c.69,3.65-.73,7.58,2.14,10.85v-6l.34,0q.18,5.31.38,10.6h.44l.4-1.28.66,1.48.35,0V3.9h.15q.53,3.81,1,7.62l.41,0c.29-4.05.58-8.1.83-11.55.35,4,.75,8.6,1.15,13.2l.24,0,.75-7.87h.23c.33,3.58.65,7.16,1,11,.17-.48.27-.74.36-1l.22,0,.3,4.61h.18l.36-4.11.09,0c.18,1.91.35,3.83.53,5.75h.3l.54-3.74h.27l.24.93.35,0v-10h.26l.09,1.77h.18l1-5.25.17,0,.28,2.74.26,0,.4-3,.34,0c.39,2.69.79,5.38,1.24,8.36.12-1.05.2-1.81.28-2.58l.2,0c.36,2.29.73,4.59,1.09,6.88l.61,0L370.53,6c.16,2.46.22,4.6.47,6.71.08.69-.68,1.89,1,2.07.19,0,.24,1.12.51,1.73l.34-6.84.16,0c.05.33.1.66.17,1.19.41-.44.72-.74,1-1.06s.58-.54.59-.82c.06-1.66,0-3.32.21-5,.9,4.93-.28,10,1.55,15,.88-.79,1.36-.85,1.6.38.1.53.69,1,1.05,1.46l.4-.21.55,4.77h.52l.5-14.95h.36v9.18h.64V7.77h.34q.28,3.87.56,7.75l.31,0c.27-2.25.53-4.51.77-6.5.32,4.27.66,8.83,1,13.39l.49,0c.11-.39.21-.78.41-1.55l.62,3.17.73-1.15c.16.62.28,1.09.43,1.65l.6-.6c.13,1.09.25,2.08.38,3.15.16-.16.3-.24.33-.34.81-3,1.7-5.95,2.38-9,.77-3.44,1.36-6.92,2-10.4,0,0,.07,0,.08,0s.13.26.31.64l.26-3.6.21,0,1.44,11.87.33,0,.77-9.95.11,0,.85,10.6h.35l.5-8.73h.19l.34,7,.18,0,.63-2.8h.33c.09.71.16,1.42.26,2.13.27,1.93,0,4.21,1,5.68s.68,2.88,1.49,4.21L403.75,7h.17l.69,5.24h.45c.31-1.42.62-2.84.93-4.24l.92,3.81.4-.06.31-.72.19,1h.34V3.21h.58V13.44l.4,0,.27-.91.17,0,.65,8.06h.41v-11l.57-.05.78,5.8.63,0,.62-5.95.09,0v10.2h.36l.49-3.94h.25c.12,1,.25,2.06.39,3.1h.46V7.25h.58V17.7l.36,0a7.32,7.32,0,0,1,.19-1.23c1.34-3.9,1.07-7.95,1.47-12l1.8,19.53h.42V8h.57v7.54h.42l.25-4.2h.24l.58,5h.45V5.81H423v8.81l.34,0c.11-1.18.21-2.37.31-3.55l.16,0a14.67,14.67,0,0,0,.24,2.1c.33,1.31.13,2.78,1.8,3.65.49.25.41,1.49.55,2.28s.22,1.45.33,2.17h.51c.09-1.79.18-3.59.28-5.66.71,2.46-.39,4.91,1,7H429l1-7.51h.16l.56,5.42H431l.66-12.06h.48c.07.75.13,1.49.23,2.55L433,9.5c.09,1.61.21,3.42.34,5.57l1.24-1.84c.32,2.19.63,4.43.95,6.67l.34,0,.45-5.94h.14l.14,1.51h.23l.41-8.74c.12,2,.24,4.18.36,6.34h.4c.06-.95.12-1.91.19-2.87h.29v7.25h.6V4.16h.34L440,15.25h.23l1.17-8.63h.34L442,7.84l.65-1.68h.23l.33,3.95.24.05a12.54,12.54,0,0,0,.38-1.66,8.75,8.75,0,0,1,.23-1.85c.12,1.17.24,2.34.38,3.74l.62-1.11.77,2.53.22,0c.13-2.08.26-4.16.38-6.14.38,3.48.77,7.08,1.16,10.67l.34,0,.67-7.91.28,0,.62,4.25.41-1.87h.15l.42,4.19h.42V8.34h.29c.2,2.22.37,4.44.63,6.64s.63,4.36.95,6.54l.49-.05.38-5.87h.1c.15,2.65.3,5.29.46,7.94h.26l.37-6.65H455l.61,2.76.16,0c.1-1.78.19-3.55.29-5.33l.3,0v6.18l1.29.31c.29-2.33.6-4.84.91-7.35,2.25,0,.62-1.81,1.47-2.5l.38.45c.09-1.2.16-2.17.24-3.32.35,4.43.68,8.65,1,12.87h.8c.27-3,.53-6.08.71-8.23l1.75,6.1.32,0c.12-1.87.23-3.74.36-5.89l1,5.49.46,0c1.34-3.63.26-7.56,1.13-11.1.39,2.81-.12,5.86.86,8.75h.48c.18-3.06.35-6.13.52-9.19h.26v9.66h.35c.26-1.35.51-2.7.76-4.05h.32l.32,1.42h.19l.26-5h.23l.25,4h.19l.41-2.87.19,0,.33,3.22.53,0,.49-6.62h.17l.53,9.85.32,0,.4-3.06h.24l.26,1.23h.15l.3-4.24h.14c.12,2.06.24,4.11.37,6.17l.71.07c1.46-1.47.44-3.55,1.24-5.25l.54,7.76.25,0,.34-2.65h.29l.27.93h.27v-10h.6V21.73H483q.3-4.73.58-9.45l.28,0,.2,2.53h.2l.24-4.41h.16l.33,5.83h.48l.46-2.77c.26,1.45.46,2.51.73,4,.17-2.41.31-4.39.48-6.68.09,1,.15,1.61.23,2.49l.37-.66L488.89,14l.33-.17V8.67l.28,0q.22,5.65.47,11.31h.39l.36-5.76h.11c.06,1,.13,2,.19,2.92h.42V7.35h.42c.12,1.56.24,3.12.39,5l.57-1.26.64,2.88.26,0,.36-5.28h.19c.05.87.08,1.74.15,2.61a11.5,11.5,0,0,0,.32,2.56,9.31,9.31,0,0,0,1.43,2c.11-1.55.2-2.76.27-4h.37v5.79h.55l.36-4.22.16,0,.18,2.24.4,0,.42-8.18h.37V19.26h.55l.33-3,.86,2.29h.24V12.91c.64,1.86-.14,3.92,1.28,5.72.36-3.79.71-7.46,1.05-11.13h.25L504,9.6l.17,0,.48-2,.62,3.53.2,0c.12-.86.23-1.73.35-2.6l.35,0c.06,1.5.19,3,.37,4.47s.63,2.79,1,4.15l.67-.09V7.88h.65v11h.41c.47-4.47.94-8.94,1.43-13.57l2.1,11.41.19,0,.38-7.49h.41v9.28h.34c.46-4.05.93-8.09,1.43-12.48.79,3.52.36,6.87,1.59,9.94l.57,0V10.22c1,3.32-.43,7,2.28,10,.15-3.39.31-6.78.46-10.17l.81,2.6.24,0,.13-1.3c.62,1.83-.13,3.89,1.46,5.55l.53-1c1.94,3.38,2.32,6.86,2.57,10.41l.6-11.89h.3c.06,1.46.17,2.91.35,4.36.13.83.72,1.58.91,2.41.25,1.07.18,2.2.48,3.25.28.83,1,1.2,1.63.82a.38.38,0,0,0,.13-.09l2.63,4.4.43-.36c1.56,3.47,5.31,3.92,8.33,5.18-1.62.72-3.3,1.63-5.1,2.23a4,4,0,0,0-3.12,4l-.68-1L530,44.37l-.34-.35-1.54,3.54-.37-.78c-.24,1.54-.43,2.74-.62,3.94h-.29l-.51-7.64h-.3l-3.11,13.7c-.15-.65-.28-1.26-.5-2.23-.18,1.15-.3,2-.48,3.15l-.83-1.63h-.33l-.29,3.74h-.22V50.49l-1.1.48c-.12-.77-.24-1.5-.35-2.24h-.33c-.1,1.36-.22,2.73-.32,4.09a33.58,33.58,0,0,1-.45,4.27l-.15-1.38c-.53,1.5-1.78,2.68-1.68,4.47.07,1.43-.58,2.89-.91,4.33l-.58,0V48.08h-.65V58.53h-.54c-.08-1.51-.15-3-.23-4.4l-3.07,6.61c-.21-3.78-.41-7.3-.61-10.81l-.19,0-.61,3.68-.13,0c-.09-.88-.19-1.75-.28-2.62l-.2,0c-.1,1.08-.21,2.15-.36,3.64L507,53.13l-.45,0V62H506l-.33-6.94-.25,0-.51,5.06-.12,0-.38-3.35h-.19l-.31,4.43c-.44-1.79-.78-3.18-1.13-4.56h-.33l-.28,5.79h-.26c0-1.17,0-2.33,0-3.5q-.27-3.88-.87-7.7a17.28,17.28,0,0,0-1.51-3.6c-.16,1.35-.33,2.7-.52,4.3l-.6-2.16-.46,0c-.12,1.19-.25,2.38-.37,3.57l-.25,0c-.08-.84-.17-1.68-.28-2.76a2.22,2.22,0,0,0-.24.51c-.35,3.45-.7,6.91-1.29,10.38l-.34-7.1-.27-.05-.6,4.3h-.23c-.11-1.4-.22-2.82-.36-4.58l-2.09,6.26c-.54-4.34-1.06-8.49-1.57-12.64h-.39v8.88l-.39,0L488.66,54l-.23,0-.24,1.89-.14,0-.39-2.05-.22,0-.25,1.54-.15,0c-.12-.9-.24-1.8-.42-3.13l-1.36,2.65-.23-.34c-.38,2.85-.78,5.75-1.17,8.66h-.51V44.87h-.63c-.15,2.27-.3,4.54-.45,6.9-.35-1.66-.68-3.24-1-4.81h-.55c-1,3.27-.46,6.72-1.12,10.06-.09-1.39-.18-2.78-.26-4a9.38,9.38,0,0,0-1.24,1.13,3.61,3.61,0,0,0-.84,1.6c-.21,1.78-.27,3.6-.62,5.41-.18-3.18-.35-6.35-.53-9.53h-.31l-.48,7h-.2L474.68,53l-.45-.06-.62,1.84-.76-.62v7.53h-.47V55.78l-.71,1-.9-3.59h-.16l-.46,5.22-.41,0c-.2-1.72-.4-3.44-.59-5.16l-.26,0c-.13,1.61-.27,3.21-.4,4.81h-.32l-.4-6.35-.47,0-.48,2.65c-.13-.82-.23-1.47-.33-2.11Z"/></svg>